<svg width="615" height="600" viewBox="0 0 615 600" fill="none" xmlns="http://www.w3.org/2000/svg">
<g clip-path="url(#clip0_1540_52)">
<g filter="url(#filter0_b_1540_52)">
<path d="M458.095 552.486C459.892 555.587 459.892 559.413 458.095 562.514L420.139 628.014C418.351 631.1 415.054 633 411.487 633H335.513C331.946 633 328.649 631.1 326.861 628.014L288.905 562.514C287.108 559.413 287.108 555.587 288.905 552.486L326.861 486.986C328.649 483.9 331.946 482 335.513 482H411.487C415.054 482 418.351 483.9 420.139 486.986L458.095 552.486Z" fill="url(#paint0_radial_1540_52)" fill-opacity="0.2"/>
<path d="M457.662 552.737C459.369 555.683 459.369 559.317 457.662 562.263L419.707 627.763C418.008 630.695 414.876 632.5 411.487 632.5H335.513C332.124 632.5 328.992 630.695 327.293 627.763L289.338 562.263C287.631 559.317 287.631 555.683 289.338 552.737L327.293 487.237C328.992 484.305 332.124 482.5 335.513 482.5H411.487C414.876 482.5 418.008 484.305 419.707 487.237L457.662 552.737Z" stroke="url(#paint1_linear_1540_52)"/>
</g>
<g filter="url(#filter1_bi_1540_52)">
<path d="M604.095 473.486C605.892 476.587 605.892 480.413 604.095 483.514L566.139 549.014C564.351 552.1 561.054 554 557.487 554H481.513C477.946 554 474.649 552.1 472.861 549.014L434.905 483.514C433.108 480.413 433.108 476.587 434.905 473.486L472.861 407.986C474.649 404.9 477.946 403 481.513 403H557.487C561.054 403 564.351 404.9 566.139 407.986L604.095 473.486Z" fill="url(#paint2_radial_1540_52)" fill-opacity="0.2"/>
<path d="M603.662 473.737C605.369 476.683 605.369 480.317 603.662 483.263L565.707 548.763C564.008 551.695 560.876 553.5 557.487 553.5H481.513C478.124 553.5 474.992 551.695 473.293 548.763L435.338 483.263C433.631 480.317 433.631 476.683 435.338 473.737L473.293 408.237C474.992 405.305 478.124 403.5 481.513 403.5H557.487C560.876 403.5 564.008 405.305 565.707 408.237L603.662 473.737Z" stroke="url(#paint3_linear_1540_52)"/>
</g>
<g filter="url(#filter2_bi_1540_52)">
<path d="M315.095 141.486C316.892 144.587 316.892 148.413 315.095 151.514L277.139 217.014C275.351 220.1 272.054 222 268.487 222H192.513C188.946 222 185.649 220.1 183.861 217.014L145.905 151.514C144.108 148.413 144.108 144.587 145.905 141.486L183.861 75.9862C185.649 72.9 188.946 71 192.513 71H268.487C272.054 71 275.351 72.9 277.139 75.9862L315.095 141.486Z" fill="url(#paint4_radial_1540_52)" fill-opacity="0.2"/>
<path d="M314.662 141.737C316.369 144.683 316.369 148.317 314.662 151.263L276.707 216.763C275.008 219.695 271.876 221.5 268.487 221.5H192.513C189.124 221.5 185.992 219.695 184.293 216.763L146.338 151.263C144.631 148.317 144.631 144.683 146.338 141.737L184.293 76.2369C185.992 73.305 189.124 71.5 192.513 71.5H268.487C271.876 71.5 275.008 73.305 276.707 76.2369L314.662 141.737Z" stroke="url(#paint5_linear_1540_52)"/>
</g>
<g filter="url(#filter3_bi_1540_52)">
<path d="M458.095 59.4863C459.892 62.5872 459.892 66.4128 458.095 69.5137L420.139 135.014C418.351 138.1 415.054 140 411.487 140H335.513C331.946 140 328.649 138.1 326.861 135.014L288.905 69.5137C287.108 66.4128 287.108 62.5872 288.905 59.4863L326.861 -6.01375C328.649 -9.10001 331.946 -11 335.513 -11H411.487C415.054 -11 418.351 -9.10001 420.139 -6.01375L458.095 59.4863Z" fill="url(#paint6_radial_1540_52)" fill-opacity="0.2"/>
<path d="M457.662 59.7369C459.369 62.6829 459.369 66.3171 457.662 69.2631L419.707 134.763C418.008 137.695 414.876 139.5 411.487 139.5H335.513C332.124 139.5 328.992 137.695 327.293 134.763L289.338 69.2631C287.631 66.3171 287.631 62.6829 289.338 59.7369L327.293 -5.76306C328.992 -8.69501 332.124 -10.5 335.513 -10.5H411.487C414.876 -10.5 418.008 -8.69501 419.707 -5.76306L457.662 59.7369Z" stroke="url(#paint7_linear_1540_52)"/>
</g>
<g filter="url(#filter4_b_1540_52)">
<path d="M313.095 470.486C314.892 473.587 314.892 477.413 313.095 480.514L275.139 546.014C273.351 549.1 270.054 551 266.487 551H190.513C186.946 551 183.649 549.1 181.861 546.014L143.905 480.514C142.108 477.413 142.108 473.587 143.905 470.486L181.861 404.986C183.649 401.9 186.946 400 190.513 400H266.487C270.054 400 273.351 401.9 275.139 404.986L313.095 470.486Z" fill="url(#paint8_radial_1540_52)" fill-opacity="0.2"/>
<path d="M312.662 470.737C314.369 473.683 314.369 477.317 312.662 480.263L274.707 545.763C273.008 548.695 269.876 550.5 266.487 550.5H190.513C187.124 550.5 183.992 548.695 182.293 545.763L144.338 480.263C142.631 477.317 142.631 473.683 144.338 470.737L182.293 405.237C183.992 402.305 187.124 400.5 190.513 400.5H266.487C269.876 400.5 273.008 402.305 274.707 405.237L312.662 470.737Z" stroke="url(#paint9_linear_1540_52)"/>
</g>
<g filter="url(#filter5_bi_1540_52)">
<path d="M315.095 304.486C316.892 307.587 316.892 311.413 315.095 314.514L277.139 380.014C275.351 383.1 272.054 385 268.487 385H192.513C188.946 385 185.649 383.1 183.861 380.014L145.905 314.514C144.108 311.413 144.108 307.587 145.905 304.486L183.861 238.986C185.649 235.9 188.946 234 192.513 234H268.487C272.054 234 275.351 235.9 277.139 238.986L315.095 304.486Z" fill="url(#paint10_radial_1540_52)" fill-opacity="0.2"/>
<path d="M314.662 304.737C316.369 307.683 316.369 311.317 314.662 314.263L276.707 379.763C275.008 382.695 271.876 384.5 268.487 384.5H192.513C189.124 384.5 185.992 382.695 184.293 379.763L146.338 314.263C144.631 311.317 144.631 307.683 146.338 304.737L184.293 239.237C185.992 236.305 189.124 234.5 192.513 234.5H268.487C271.876 234.5 275.008 236.305 276.707 239.237L314.662 304.737Z" stroke="url(#paint11_linear_1540_52)"/>
</g>
<g filter="url(#filter6_bi_1540_52)">
<path d="M458.095 389.486C459.892 392.587 459.892 396.413 458.095 399.514L420.139 465.014C418.351 468.1 415.054 470 411.487 470H335.513C331.946 470 328.649 468.1 326.861 465.014L288.905 399.514C287.108 396.413 287.108 392.587 288.905 389.486L326.861 323.986C328.649 320.9 331.946 319 335.513 319H411.487C415.054 319 418.351 320.9 420.139 323.986L458.095 389.486Z" fill="url(#paint12_radial_1540_52)" fill-opacity="0.2"/>
<path d="M457.662 389.737C459.369 392.683 459.369 396.317 457.662 399.263L419.707 464.763C418.008 467.695 414.876 469.5 411.487 469.5H335.513C332.124 469.5 328.992 467.695 327.293 464.763L289.338 399.263C287.631 396.317 287.631 392.683 289.338 389.737L327.293 324.237C328.992 321.305 332.124 319.5 335.513 319.5H411.487C414.876 319.5 418.008 321.305 419.707 324.237L457.662 389.737Z" stroke="url(#paint13_linear_1540_52)"/>
</g>
<g filter="url(#filter7_bi_1540_52)">
<path d="M605.095 309.486C606.892 312.587 606.892 316.413 605.095 319.514L567.139 385.014C565.351 388.1 562.054 390 558.487 390H482.513C478.946 390 475.649 388.1 473.861 385.014L435.905 319.514C434.108 316.413 434.108 312.587 435.905 309.486L473.861 243.986C475.649 240.9 478.946 239 482.513 239H558.487C562.054 239 565.351 240.9 567.139 243.986L605.095 309.486Z" fill="url(#paint14_radial_1540_52)" fill-opacity="0.2"/>
<path d="M604.662 309.737C606.369 312.683 606.369 316.317 604.662 319.263L566.707 384.763C565.008 387.695 561.876 389.5 558.487 389.5H482.513C479.124 389.5 475.992 387.695 474.293 384.763L436.338 319.263C434.631 316.317 434.631 312.683 436.338 309.737L474.293 244.237C475.992 241.305 479.124 239.5 482.513 239.5H558.487C561.876 239.5 565.008 241.305 566.707 244.237L604.662 309.737Z" stroke="url(#paint15_linear_1540_52)"/>
</g>
<g filter="url(#filter8_bi_1540_52)">
<path d="M461.095 223.486C462.892 226.587 462.892 230.413 461.095 233.514L423.139 299.014C421.351 302.1 418.054 304 414.487 304H338.513C334.946 304 331.649 302.1 329.861 299.014L291.905 233.514C290.108 230.413 290.108 226.587 291.905 223.486L329.861 157.986C331.649 154.9 334.946 153 338.513 153H414.487C418.054 153 421.351 154.9 423.139 157.986L461.095 223.486Z" fill="url(#paint16_radial_1540_52)" fill-opacity="0.2"/>
<path d="M460.662 223.737C462.369 226.683 462.369 230.317 460.662 233.263L422.707 298.763C421.008 301.695 417.876 303.5 414.487 303.5H338.513C335.124 303.5 331.992 301.695 330.293 298.763L292.338 233.263C290.631 230.317 290.631 226.683 292.338 223.737L330.293 158.237C331.992 155.305 335.124 153.5 338.513 153.5H414.487C417.876 153.5 421.008 155.305 422.707 158.237L460.662 223.737Z" stroke="url(#paint17_linear_1540_52)"/>
</g>
<g filter="url(#filter9_bi_1540_52)">
<path d="M170.095 386.486C171.892 389.587 171.892 393.413 170.095 396.514L132.139 462.014C130.351 465.1 127.054 467 123.487 467H47.5129C43.9459 467 40.649 465.1 38.8606 462.014L0.905318 396.514C-0.891614 393.413 -0.891614 389.587 0.905318 386.486L38.8606 320.986C40.649 317.9 43.9459 316 47.5129 316H123.487C127.054 316 130.351 317.9 132.139 320.986L170.095 386.486Z" fill="url(#paint18_radial_1540_52)" fill-opacity="0.2"/>
<path d="M170.527 396.764C172.414 393.508 172.414 389.492 170.527 386.236L132.572 320.736C130.694 317.495 127.232 315.5 123.487 315.5H47.5129C43.7676 315.5 40.3058 317.495 38.428 320.736L0.472703 386.236C-1.41408 389.492 -1.41408 393.508 0.472703 396.764L38.428 462.264C40.3058 465.505 43.7676 467.5 47.5129 467.5H123.487C127.232 467.5 130.694 465.505 132.572 462.264L170.527 396.764Z" stroke="url(#paint19_angular_1540_52)" stroke-opacity="0.5"/>
</g>
<g filter="url(#filter10_bi_1540_52)">
<path d="M172.095 223.486C173.892 226.587 173.892 230.413 172.095 233.514L134.139 299.014C132.351 302.1 129.054 304 125.487 304H49.5129C45.9459 304 42.649 302.1 40.8606 299.014L2.90532 233.514C1.10839 230.413 1.10839 226.587 2.90532 223.486L40.8606 157.986C42.649 154.9 45.9459 153 49.5129 153H125.487C129.054 153 132.351 154.9 134.139 157.986L172.095 223.486Z" fill="url(#paint20_radial_1540_52)" fill-opacity="0.2"/>
<path d="M171.662 223.737C173.369 226.683 173.369 230.317 171.662 233.263L133.707 298.763C132.008 301.695 128.876 303.5 125.487 303.5H49.5129C46.1243 303.5 42.9922 301.695 41.2932 298.763L3.33793 233.263C1.63085 230.317 1.63085 226.683 3.33793 223.737L41.2932 158.237C42.9922 155.305 46.1243 153.5 49.5129 153.5H125.487C128.876 153.5 132.008 155.305 133.707 158.237L171.662 223.737Z" stroke="url(#paint21_linear_1540_52)"/>
</g>
<g opacity="0.3" clip-path="url(#clip1_1540_52)">
<path d="M86.7007 352.02C68.9749 352.02 70.0817 359.737 70.0817 359.737L70.1013 367.733H87.0168V370.134H63.3828C63.3828 370.134 52.04 368.842 52.04 386.799C52.04 404.757 61.9403 404.12 61.9403 404.12H67.8487V395.787C67.8487 395.787 67.5302 385.847 77.5909 385.847H94.368C94.368 385.847 103.794 386 103.794 376.701V361.325C103.794 361.325 105.225 352.02 86.7007 352.02ZM77.3736 357.397C77.7733 357.396 78.1691 357.475 78.5385 357.628C78.9079 357.782 79.2435 358.007 79.5261 358.291C79.8088 358.574 80.0329 358.911 80.1857 359.282C80.3385 359.653 80.417 360.051 80.4166 360.452C80.417 360.853 80.3385 361.251 80.1857 361.622C80.0329 361.992 79.8088 362.329 79.5261 362.613C79.2435 362.897 78.9079 363.122 78.5385 363.275C78.1691 363.429 77.7733 363.508 77.3736 363.507C76.9738 363.508 76.578 363.429 76.2086 363.275C75.8392 363.122 75.5036 362.897 75.221 362.613C74.9383 362.329 74.7142 361.992 74.5614 361.622C74.4086 361.251 74.3301 360.853 74.3305 360.452C74.3301 360.051 74.4086 359.653 74.5614 359.282C74.7142 358.911 74.9383 358.574 75.221 358.291C75.5036 358.007 75.8392 357.782 76.2086 357.628C76.578 357.475 76.9738 357.396 77.3736 357.397Z" fill="url(#paint22_linear_1540_52)"/>
<path d="M87.204 421.76C104.93 421.76 103.823 414.042 103.823 414.042L103.803 406.046H86.8877V403.646H110.522C110.522 403.646 121.864 404.937 121.864 386.98C121.864 369.022 111.964 369.659 111.964 369.659H106.056V377.992C106.056 377.992 106.374 387.932 96.3136 387.932H79.5365C79.5365 387.932 70.1106 387.779 70.1106 397.078V412.455C70.1106 412.455 68.6793 421.76 87.2038 421.76H87.204ZM96.5312 416.383C96.1315 416.383 95.7356 416.305 95.3662 416.151C94.9969 415.998 94.6613 415.773 94.3786 415.489C94.096 415.205 93.8718 414.868 93.719 414.497C93.5662 414.127 93.4878 413.729 93.4881 413.328C93.4877 412.926 93.5662 412.529 93.719 412.158C93.8717 411.787 94.0959 411.45 94.3785 411.166C94.6612 410.883 94.9968 410.658 95.3662 410.504C95.7356 410.351 96.1315 410.272 96.5312 410.272C96.9309 410.272 97.3268 410.351 97.6962 410.504C98.0655 410.657 98.4011 410.883 98.6838 411.166C98.9664 411.45 99.1906 411.787 99.3434 412.158C99.4962 412.529 99.5746 412.926 99.5743 413.328C99.5746 413.729 99.4962 414.126 99.3434 414.497C99.1906 414.868 98.9664 415.205 98.6838 415.489C98.4011 415.773 98.0655 415.998 97.6962 416.151C97.3268 416.304 96.9309 416.383 96.5312 416.383Z" fill="url(#paint23_linear_1540_52)"/>
</g>
<g opacity="0.3">
<path d="M85.6605 262L73.7168 255.066V214.176L55.7246 224.572L55.7684 209.084L85.6605 192V262ZM88.3457 192V262L100.289 255.066V235.373L109.307 240.584L109.253 227.115L100.289 221.996V214.176L118.276 224.572L118.232 209.084L88.3457 192Z" fill="#FF6F00"/>
</g>
<g opacity="0.4">
<g clip-path="url(#clip2_1540_52)">
<path d="M196.206 311.353C196.206 316.603 201.336 321.503 209.424 324.266C207.809 332.391 209.135 338.94 213.563 341.491C218.114 344.114 224.894 342.298 231.33 336.677C237.603 342.071 243.943 344.194 248.367 341.635C252.914 339.005 254.297 332.012 252.637 323.634C261.062 320.851 265.774 316.672 265.774 311.353C265.774 306.225 260.634 301.788 252.655 299.043C254.442 290.319 252.928 283.929 248.317 281.272C243.871 278.71 237.457 280.943 231.092 286.478C224.47 280.603 218.119 278.809 213.513 281.474C209.071 284.043 207.804 290.711 209.424 298.986C201.609 301.708 196.206 306.245 196.206 311.353Z" fill="white"/>
<path d="M250.966 301.768C250.308 301.542 249.645 301.334 248.977 301.142C249.088 300.692 249.19 300.24 249.284 299.786C250.79 292.483 249.805 286.6 246.444 284.664C243.221 282.807 237.95 284.743 232.626 289.372C232.102 289.83 231.589 290.3 231.088 290.783C230.752 290.462 230.411 290.147 230.064 289.838C224.485 284.888 218.892 282.802 215.535 284.744C212.315 286.607 211.361 292.138 212.716 299.059C212.851 299.744 213.003 300.426 213.173 301.103C212.382 301.328 211.617 301.567 210.886 301.822C204.345 304.101 200.168 307.672 200.168 311.376C200.168 315.203 204.652 319.04 211.465 321.367C212.018 321.555 212.575 321.729 213.136 321.889C212.954 322.619 212.792 323.354 212.651 324.093C211.358 330.893 212.368 336.293 215.579 338.144C218.896 340.055 224.463 338.091 229.884 333.356C230.312 332.982 230.742 332.585 231.173 332.169C231.716 332.692 232.272 333.199 232.843 333.691C238.094 338.206 243.28 340.029 246.489 338.173C249.802 336.257 250.879 330.456 249.481 323.398C249.374 322.859 249.25 322.309 249.11 321.748C249.501 321.633 249.885 321.514 250.259 321.389C257.342 319.045 261.95 315.254 261.95 311.376C261.95 307.659 257.638 304.063 250.966 301.768Z" fill="#53C1DE"/>
<path d="M249.429 318.888C249.091 319 248.744 319.108 248.391 319.212C247.609 316.739 246.554 314.108 245.263 311.391C246.495 308.738 247.509 306.142 248.269 303.684C248.901 303.867 249.515 304.06 250.106 304.263C255.823 306.23 259.311 309.138 259.311 311.378C259.311 313.765 255.544 316.863 249.429 318.888ZM246.891 323.912C247.51 327.033 247.598 329.854 247.188 332.06C246.82 334.042 246.08 335.363 245.166 335.893C243.218 337.019 239.054 335.555 234.564 331.694C234.049 331.251 233.531 330.778 233.011 330.278C234.752 328.376 236.491 326.164 238.189 323.708C241.176 323.443 243.998 323.01 246.557 322.419C246.683 322.927 246.795 323.425 246.891 323.912ZM221.23 335.698C219.328 336.369 217.813 336.389 216.897 335.861C214.948 334.738 214.139 330.402 215.243 324.586C215.375 323.899 215.525 323.216 215.695 322.537C218.225 323.096 221.026 323.499 224.02 323.741C225.73 326.145 227.52 328.354 229.324 330.289C228.94 330.659 228.548 331.02 228.147 331.372C225.75 333.466 223.348 334.951 221.231 335.698H221.23ZM212.319 318.873C209.306 317.844 206.818 316.507 205.113 315.048C203.58 313.737 202.807 312.435 202.807 311.378C202.807 309.13 206.161 306.263 211.755 304.314C212.457 304.07 213.166 303.847 213.881 303.645C214.654 306.158 215.669 308.786 216.892 311.442C215.653 314.139 214.624 316.808 213.844 319.35C213.332 319.204 212.823 319.045 212.319 318.873ZM215.306 298.554C214.145 292.624 214.916 288.151 216.856 287.029C218.923 285.833 223.494 287.538 228.311 291.812C228.619 292.085 228.928 292.371 229.238 292.667C227.443 294.593 225.669 296.786 223.975 299.175C221.069 299.444 218.288 299.877 215.731 300.456C215.573 299.825 215.432 299.191 215.306 298.554ZM241.956 305.129C241.352 304.087 240.726 303.057 240.077 302.042C242.049 302.291 243.937 302.621 245.711 303.026C245.178 304.731 244.515 306.514 243.733 308.342C243.162 307.259 242.57 306.188 241.956 305.129ZM231.088 294.552C232.305 295.87 233.525 297.341 234.724 298.938C232.291 298.823 229.855 298.822 227.422 298.936C228.622 297.354 229.852 295.885 231.088 294.552ZM220.151 305.147C219.545 306.198 218.963 307.262 218.407 308.34C217.638 306.518 216.981 304.727 216.443 302.998C218.206 302.604 220.086 302.281 222.045 302.037C221.389 303.059 220.757 304.096 220.151 305.147ZM222.101 320.908C220.078 320.682 218.169 320.376 216.407 319.993C216.953 318.233 217.625 316.403 218.41 314.543C218.968 315.621 219.552 316.686 220.161 317.737C220.783 318.809 221.429 319.866 222.101 320.908ZM231.161 328.391C229.91 327.042 228.663 325.55 227.444 323.945C228.627 323.992 229.833 324.015 231.059 324.015C232.318 324.015 233.563 323.987 234.788 323.933C233.585 325.567 232.37 327.06 231.161 328.391ZM243.758 314.448C244.584 316.329 245.28 318.148 245.833 319.879C244.042 320.287 242.108 320.616 240.07 320.86C240.723 319.826 241.355 318.778 241.967 317.719C242.588 316.642 243.186 315.551 243.758 314.448ZM239.68 316.401C238.744 318.026 237.756 319.62 236.716 321.18C234.883 321.311 232.989 321.378 231.059 321.378C229.136 321.378 227.266 321.318 225.465 321.202C224.398 319.645 223.391 318.049 222.445 316.416C221.504 314.792 220.625 313.132 219.81 311.442C220.623 309.75 221.499 308.09 222.438 306.465V306.465C223.375 304.839 224.375 303.25 225.433 301.7C227.271 301.561 229.155 301.488 231.059 301.488C232.972 301.488 234.858 301.561 236.695 301.701C237.743 303.249 238.736 304.833 239.672 306.451C240.613 308.072 241.501 309.724 242.335 311.404C241.51 313.101 240.624 314.768 239.68 316.401ZM245.125 286.95C247.194 288.143 247.999 292.95 246.699 299.256C246.613 299.666 246.521 300.075 246.421 300.483C243.858 299.892 241.074 299.452 238.16 299.179C236.462 296.763 234.703 294.567 232.938 292.666C233.4 292.22 233.874 291.786 234.358 291.364C238.92 287.397 243.183 285.831 245.125 286.95Z" fill="white"/>
<path d="M231.059 305.865C234.106 305.865 236.576 308.334 236.576 311.378C236.576 314.423 234.106 316.891 231.059 316.891C228.012 316.891 225.542 314.423 225.542 311.378C225.542 308.334 228.012 305.865 231.059 305.865Z" fill="#53C1DE"/>
</g>
</g>
<g opacity="0.4" clip-path="url(#clip3_1540_52)">
<path d="M265.882 131.011C265.882 129.7 265.599 128.54 265.028 127.545C264.467 126.567 263.627 125.747 262.499 125.099C253.196 119.77 243.883 114.457 234.582 109.122C232.075 107.684 229.644 107.737 227.155 109.196C223.452 111.365 204.911 121.917 199.387 125.096C197.111 126.404 196.004 128.406 196.004 131.009C196 141.726 196.004 152.443 196 163.16C196.001 164.443 196.271 165.58 196.817 166.56C197.378 167.568 198.23 168.41 199.384 169.073C204.909 172.252 223.451 182.803 227.154 184.973C229.644 186.432 232.075 186.485 234.583 185.046C243.884 179.711 253.197 174.399 262.502 169.07C263.656 168.407 264.508 167.564 265.069 166.557C265.614 165.577 265.885 164.44 265.886 163.157C265.886 163.157 265.886 141.729 265.882 131.011Z" fill="#5C8DBC"/>
<path d="M231.05 146.98L196.817 166.56C197.379 167.568 198.231 168.411 199.384 169.074C204.909 172.253 223.452 182.803 227.154 184.973C229.644 186.433 232.075 186.485 234.583 185.047C243.884 179.712 253.198 174.399 262.503 169.07C263.656 168.408 264.508 167.565 265.069 166.557L231.05 146.98Z" fill="#1A4674"/>
<path d="M220.91 152.78C222.902 156.235 226.647 158.565 230.943 158.565C235.265 158.565 239.031 156.205 241.013 152.714L231.049 146.98L220.91 152.78Z" fill="#1A4674"/>
<path d="M265.882 131.011C265.882 129.699 265.599 128.54 265.028 127.545L231.05 146.98L265.069 166.557C265.614 165.577 265.885 164.44 265.886 163.156C265.886 163.156 265.886 141.728 265.882 131.011Z" fill="#1B598E"/>
<path d="M264.012 148.379H261.354V151.02H258.695V148.379H256.037V145.738H258.695V143.098H261.354V145.738H264.012V148.379ZM254.312 148.379H251.654V151.02H248.995V148.379H246.337V145.738H248.995V143.098H251.654V145.738H254.312V148.379Z" fill="white"/>
<path d="M241.013 152.714C239.031 156.205 235.265 158.565 230.942 158.565C226.647 158.565 222.902 156.235 220.91 152.78C219.909 151.047 219.384 149.083 219.386 147.085C219.386 140.745 224.56 135.605 230.942 135.605C235.21 135.605 238.936 137.906 240.937 141.325L251.038 135.548C247.024 128.663 239.528 124.031 230.942 124.031C218.125 124.031 207.734 134.353 207.734 147.085C207.734 151.262 208.853 155.179 210.808 158.558C214.813 165.479 222.33 170.139 230.942 170.139C239.571 170.139 247.1 165.46 251.099 158.519L241.013 152.714Z" fill="white"/>
</g>
<g opacity="0.25">
<path d="M396.742 212.945L391.711 217.977C399.969 226.234 399.969 239.523 391.711 247.672C383.453 255.93 370.164 255.93 362.016 247.672C353.758 239.414 353.758 226.125 362.016 217.977L375.141 204.852L377 202.992V193.094L357.203 212.891C346.211 223.883 346.211 241.656 357.203 252.703C368.195 263.75 385.969 263.695 396.797 252.703C407.789 241.656 407.789 223.992 396.742 212.945Z" fill="#EE4C2C"/>
<path d="M390.546 208.129C390.583 206.105 388.974 204.435 386.95 204.397C384.927 204.36 383.257 205.97 383.219 207.993C383.182 210.016 384.791 211.687 386.815 211.724C388.838 211.762 390.508 210.152 390.546 208.129Z" fill="#EE4C2C"/>
</g>
<g opacity="0.25">
<path d="M377 422C396.33 422 412 406.33 412 387C412 367.67 396.33 352 377 352C357.67 352 342 367.67 342 387C342 406.33 357.67 422 377 422Z" fill="black"/>
<path d="M400.142 413.258L368.888 373H363V400.989H367.711V378.982L396.444 416.106C397.738 415.24 398.974 414.288 400.142 413.258Z" fill="url(#paint24_linear_1540_52)"/>
<path d="M386.723 373H391.389V401H386.723V373Z" fill="url(#paint25_linear_1540_52)"/>
</g>
<g opacity="0.2">
<path d="M530.551 286.774C531.134 287.493 531.43 288.462 532.024 290.399L545 332.736C540.126 330.224 534.895 328.464 529.487 327.519L521.039 299.163C520.971 298.937 520.832 298.738 520.642 298.597C520.451 298.456 520.22 298.38 519.983 298.381C519.745 298.381 519.514 298.458 519.324 298.599C519.134 298.741 518.996 298.94 518.929 299.166L510.583 327.505C505.15 328.446 499.895 330.208 495 332.729L508.039 290.39C508.635 288.455 508.933 287.488 509.515 286.771C510.03 286.138 510.698 285.647 511.458 285.344C512.318 285 513.337 285 515.374 285H524.687C526.727 285 527.746 285 528.608 285.344C529.368 285.648 530.037 286.141 530.551 286.774" fill="black"/>
<path d="M532.104 334.751C529.965 336.567 525.695 337.806 520.777 337.806C514.741 337.806 509.682 335.94 508.34 333.43C507.86 334.868 507.752 336.515 507.752 337.566C507.752 337.566 507.436 342.731 511.053 346.323C511.053 344.458 512.575 342.946 514.453 342.946C517.672 342.946 517.668 345.735 517.665 347.998L517.665 348.2C517.665 351.634 519.778 354.579 522.784 355.82C522.321 354.874 522.082 353.836 522.083 352.784C522.083 349.508 524.019 348.289 526.27 346.871C528.06 345.744 530.05 344.49 531.42 341.977C532.159 340.622 532.544 339.106 532.542 337.566C532.542 336.585 532.388 335.639 532.104 334.751Z" fill="#FF5D01"/>
</g>
</g>
<defs>
<filter id="filter0_b_1540_52" x="267.558" y="462" width="211.885" height="191" filterUnits="userSpaceOnUse" color-interpolation-filters="sRGB">
<feFlood flood-opacity="0" result="BackgroundImageFix"/>
<feGaussianBlur in="BackgroundImageFix" stdDeviation="10"/>
<feComposite in2="SourceAlpha" operator="in" result="effect1_backgroundBlur_1540_52"/>
<feBlend mode="normal" in="SourceGraphic" in2="effect1_backgroundBlur_1540_52" result="shape"/>
</filter>
<filter id="filter1_bi_1540_52" x="413.558" y="383" width="211.885" height="191" filterUnits="userSpaceOnUse" color-interpolation-filters="sRGB">
<feFlood flood-opacity="0" result="BackgroundImageFix"/>
<feGaussianBlur in="BackgroundImageFix" stdDeviation="10"/>
<feComposite in2="SourceAlpha" operator="in" result="effect1_backgroundBlur_1540_52"/>
<feBlend mode="normal" in="SourceGraphic" in2="effect1_backgroundBlur_1540_52" result="shape"/>
<feColorMatrix in="SourceAlpha" type="matrix" values="0 0 0 0 0 0 0 0 0 0 0 0 0 0 0 0 0 0 127 0" result="hardAlpha"/>
<feOffset dy="20"/>
<feGaussianBlur stdDeviation="25"/>
<feComposite in2="hardAlpha" operator="arithmetic" k2="-1" k3="1"/>
<feColorMatrix type="matrix" values="0 0 0 0 1 0 0 0 0 1 0 0 0 0 1 0 0 0 0.1 0"/>
<feBlend mode="normal" in2="shape" result="effect2_innerShadow_1540_52"/>
</filter>
<filter id="filter2_bi_1540_52" x="124.558" y="41" width="211.885" height="201" filterUnits="userSpaceOnUse" color-interpolation-filters="sRGB">
<feFlood flood-opacity="0" result="BackgroundImageFix"/>
<feGaussianBlur in="BackgroundImageFix" stdDeviation="10"/>
<feComposite in2="SourceAlpha" operator="in" result="effect1_backgroundBlur_1540_52"/>
<feBlend mode="normal" in="SourceGraphic" in2="effect1_backgroundBlur_1540_52" result="shape"/>
<feColorMatrix in="SourceAlpha" type="matrix" values="0 0 0 0 0 0 0 0 0 0 0 0 0 0 0 0 0 0 127 0" result="hardAlpha"/>
<feOffset dy="-30"/>
<feGaussianBlur stdDeviation="25"/>
<feComposite in2="hardAlpha" operator="arithmetic" k2="-1" k3="1"/>
<feColorMatrix type="matrix" values="0 0 0 0 1 0 0 0 0 1 0 0 0 0 1 0 0 0 0.1 0"/>
<feBlend mode="normal" in2="shape" result="effect2_innerShadow_1540_52"/>
</filter>
<filter id="filter3_bi_1540_52" x="267.558" y="-41" width="211.885" height="201" filterUnits="userSpaceOnUse" color-interpolation-filters="sRGB">
<feFlood flood-opacity="0" result="BackgroundImageFix"/>
<feGaussianBlur in="BackgroundImageFix" stdDeviation="10"/>
<feComposite in2="SourceAlpha" operator="in" result="effect1_backgroundBlur_1540_52"/>
<feBlend mode="normal" in="SourceGraphic" in2="effect1_backgroundBlur_1540_52" result="shape"/>
<feColorMatrix in="SourceAlpha" type="matrix" values="0 0 0 0 0 0 0 0 0 0 0 0 0 0 0 0 0 0 127 0" result="hardAlpha"/>
<feOffset dy="-30"/>
<feGaussianBlur stdDeviation="25"/>
<feComposite in2="hardAlpha" operator="arithmetic" k2="-1" k3="1"/>
<feColorMatrix type="matrix" values="0 0 0 0 1 0 0 0 0 1 0 0 0 0 1 0 0 0 0.1 0"/>
<feBlend mode="normal" in2="shape" result="effect2_innerShadow_1540_52"/>
</filter>
<filter id="filter4_b_1540_52" x="122.558" y="380" width="211.885" height="191" filterUnits="userSpaceOnUse" color-interpolation-filters="sRGB">
<feFlood flood-opacity="0" result="BackgroundImageFix"/>
<feGaussianBlur in="BackgroundImageFix" stdDeviation="10"/>
<feComposite in2="SourceAlpha" operator="in" result="effect1_backgroundBlur_1540_52"/>
<feBlend mode="normal" in="SourceGraphic" in2="effect1_backgroundBlur_1540_52" result="shape"/>
</filter>
<filter id="filter5_bi_1540_52" x="124.558" y="214" width="211.885" height="201" filterUnits="userSpaceOnUse" color-interpolation-filters="sRGB">
<feFlood flood-opacity="0" result="BackgroundImageFix"/>
<feGaussianBlur in="BackgroundImageFix" stdDeviation="10"/>
<feComposite in2="SourceAlpha" operator="in" result="effect1_backgroundBlur_1540_52"/>
<feBlend mode="normal" in="SourceGraphic" in2="effect1_backgroundBlur_1540_52" result="shape"/>
<feColorMatrix in="SourceAlpha" type="matrix" values="0 0 0 0 0 0 0 0 0 0 0 0 0 0 0 0 0 0 127 0" result="hardAlpha"/>
<feOffset dy="30"/>
<feGaussianBlur stdDeviation="15"/>
<feComposite in2="hardAlpha" operator="arithmetic" k2="-1" k3="1"/>
<feColorMatrix type="matrix" values="0 0 0 0 1 0 0 0 0 1 0 0 0 0 1 0 0 0 0.05 0"/>
<feBlend mode="normal" in2="shape" result="effect2_innerShadow_1540_52"/>
</filter>
<filter id="filter6_bi_1540_52" x="267.558" y="299" width="211.885" height="201" filterUnits="userSpaceOnUse" color-interpolation-filters="sRGB">
<feFlood flood-opacity="0" result="BackgroundImageFix"/>
<feGaussianBlur in="BackgroundImageFix" stdDeviation="10"/>
<feComposite in2="SourceAlpha" operator="in" result="effect1_backgroundBlur_1540_52"/>
<feBlend mode="normal" in="SourceGraphic" in2="effect1_backgroundBlur_1540_52" result="shape"/>
<feColorMatrix in="SourceAlpha" type="matrix" values="0 0 0 0 0 0 0 0 0 0 0 0 0 0 0 0 0 0 127 0" result="hardAlpha"/>
<feOffset dy="30"/>
<feGaussianBlur stdDeviation="15"/>
<feComposite in2="hardAlpha" operator="arithmetic" k2="-1" k3="1"/>
<feColorMatrix type="matrix" values="0 0 0 0 1 0 0 0 0 1 0 0 0 0 1 0 0 0 0.05 0"/>
<feBlend mode="normal" in2="shape" result="effect2_innerShadow_1540_52"/>
</filter>
<filter id="filter7_bi_1540_52" x="414.558" y="219" width="211.885" height="201" filterUnits="userSpaceOnUse" color-interpolation-filters="sRGB">
<feFlood flood-opacity="0" result="BackgroundImageFix"/>
<feGaussianBlur in="BackgroundImageFix" stdDeviation="10"/>
<feComposite in2="SourceAlpha" operator="in" result="effect1_backgroundBlur_1540_52"/>
<feBlend mode="normal" in="SourceGraphic" in2="effect1_backgroundBlur_1540_52" result="shape"/>
<feColorMatrix in="SourceAlpha" type="matrix" values="0 0 0 0 0 0 0 0 0 0 0 0 0 0 0 0 0 0 127 0" result="hardAlpha"/>
<feOffset dy="30"/>
<feGaussianBlur stdDeviation="15"/>
<feComposite in2="hardAlpha" operator="arithmetic" k2="-1" k3="1"/>
<feColorMatrix type="matrix" values="0 0 0 0 1 0 0 0 0 1 0 0 0 0 1 0 0 0 0.05 0"/>
<feBlend mode="normal" in2="shape" result="effect2_innerShadow_1540_52"/>
</filter>
<filter id="filter8_bi_1540_52" x="270.558" y="133" width="211.885" height="201" filterUnits="userSpaceOnUse" color-interpolation-filters="sRGB">
<feFlood flood-opacity="0" result="BackgroundImageFix"/>
<feGaussianBlur in="BackgroundImageFix" stdDeviation="10"/>
<feComposite in2="SourceAlpha" operator="in" result="effect1_backgroundBlur_1540_52"/>
<feBlend mode="normal" in="SourceGraphic" in2="effect1_backgroundBlur_1540_52" result="shape"/>
<feColorMatrix in="SourceAlpha" type="matrix" values="0 0 0 0 0 0 0 0 0 0 0 0 0 0 0 0 0 0 127 0" result="hardAlpha"/>
<feOffset dy="30"/>
<feGaussianBlur stdDeviation="15"/>
<feComposite in2="hardAlpha" operator="arithmetic" k2="-1" k3="1"/>
<feColorMatrix type="matrix" values="0 0 0 0 1 0 0 0 0 1 0 0 0 0 1 0 0 0 0.05 0"/>
<feBlend mode="normal" in2="shape" result="effect2_innerShadow_1540_52"/>
</filter>
<filter id="filter9_bi_1540_52" x="-311.442" y="5" width="793.885" height="773" filterUnits="userSpaceOnUse" color-interpolation-filters="sRGB">
<feFlood flood-opacity="0" result="BackgroundImageFix"/>
<feGaussianBlur in="BackgroundImageFix" stdDeviation="155"/>
<feComposite in2="SourceAlpha" operator="in" result="effect1_backgroundBlur_1540_52"/>
<feBlend mode="normal" in="SourceGraphic" in2="effect1_backgroundBlur_1540_52" result="shape"/>
<feColorMatrix in="SourceAlpha" type="matrix" values="0 0 0 0 0 0 0 0 0 0 0 0 0 0 0 0 0 0 127 0" result="hardAlpha"/>
<feOffset dy="-10"/>
<feGaussianBlur stdDeviation="30"/>
<feComposite in2="hardAlpha" operator="arithmetic" k2="-1" k3="1"/>
<feColorMatrix type="matrix" values="0 0 0 0 0.604141 0 0 0 0 0.505176 0 0 0 0 1 0 0 0 0.5 0"/>
<feBlend mode="normal" in2="shape" result="effect2_innerShadow_1540_52"/>
</filter>
<filter id="filter10_bi_1540_52" x="-18.4424" y="123" width="211.885" height="201" filterUnits="userSpaceOnUse" color-interpolation-filters="sRGB">
<feFlood flood-opacity="0" result="BackgroundImageFix"/>
<feGaussianBlur in="BackgroundImageFix" stdDeviation="10"/>
<feComposite in2="SourceAlpha" operator="in" result="effect1_backgroundBlur_1540_52"/>
<feBlend mode="normal" in="SourceGraphic" in2="effect1_backgroundBlur_1540_52" result="shape"/>
<feColorMatrix in="SourceAlpha" type="matrix" values="0 0 0 0 0 0 0 0 0 0 0 0 0 0 0 0 0 0 127 0" result="hardAlpha"/>
<feOffset dy="-30"/>
<feGaussianBlur stdDeviation="25"/>
<feComposite in2="hardAlpha" operator="arithmetic" k2="-1" k3="1"/>
<feColorMatrix type="matrix" values="0 0 0 0 1 0 0 0 0 1 0 0 0 0 1 0 0 0 0.1 0"/>
<feBlend mode="normal" in2="shape" result="effect2_innerShadow_1540_52"/>
</filter>
<radialGradient id="paint0_radial_1540_52" cx="0" cy="0" r="1" gradientUnits="userSpaceOnUse" gradientTransform="translate(409.074 506.151) rotate(104.168) scale(103.14 58.0724)">
<stop stop-color="#2E335A"/>
<stop offset="1" stop-color="#1C1B33" stop-opacity="0.2"/>
</radialGradient>
<linearGradient id="paint1_linear_1540_52" x1="461" y1="633" x2="286" y2="482" gradientUnits="userSpaceOnUse">
<stop stop-color="white" stop-opacity="0"/>
<stop offset="1" stop-color="white" stop-opacity="0.2"/>
</linearGradient>
<radialGradient id="paint2_radial_1540_52" cx="0" cy="0" r="1" gradientUnits="userSpaceOnUse" gradientTransform="translate(555.074 427.151) rotate(104.168) scale(103.14 58.0724)">
<stop stop-color="#2E335A"/>
<stop offset="1" stop-color="#1C1B33" stop-opacity="0.2"/>
</radialGradient>
<linearGradient id="paint3_linear_1540_52" x1="607" y1="554" x2="432" y2="403" gradientUnits="userSpaceOnUse">
<stop stop-color="white" stop-opacity="0"/>
<stop offset="1" stop-color="white" stop-opacity="0.2"/>
</linearGradient>
<radialGradient id="paint4_radial_1540_52" cx="0" cy="0" r="1" gradientUnits="userSpaceOnUse" gradientTransform="translate(266.074 95.1506) rotate(104.168) scale(103.14 58.0724)">
<stop stop-color="#2E335A"/>
<stop offset="1" stop-color="#1C1B33" stop-opacity="0.2"/>
</radialGradient>
<linearGradient id="paint5_linear_1540_52" x1="143" y1="71" x2="318" y2="222" gradientUnits="userSpaceOnUse">
<stop stop-color="white" stop-opacity="0"/>
<stop offset="1" stop-color="white" stop-opacity="0.2"/>
</linearGradient>
<radialGradient id="paint6_radial_1540_52" cx="0" cy="0" r="1" gradientUnits="userSpaceOnUse" gradientTransform="translate(409.074 13.1506) rotate(104.168) scale(103.14 58.0724)">
<stop stop-color="#2E335A"/>
<stop offset="1" stop-color="#1C1B33" stop-opacity="0.2"/>
</radialGradient>
<linearGradient id="paint7_linear_1540_52" x1="286" y1="-11" x2="461" y2="140" gradientUnits="userSpaceOnUse">
<stop stop-color="white" stop-opacity="0"/>
<stop offset="1" stop-color="white" stop-opacity="0.2"/>
</linearGradient>
<radialGradient id="paint8_radial_1540_52" cx="0" cy="0" r="1" gradientUnits="userSpaceOnUse" gradientTransform="translate(264.074 424.151) rotate(104.168) scale(103.14 58.0724)">
<stop stop-color="#2E335A"/>
<stop offset="1" stop-color="#1C1B33" stop-opacity="0.2"/>
</radialGradient>
<linearGradient id="paint9_linear_1540_52" x1="316" y1="551" x2="141" y2="400" gradientUnits="userSpaceOnUse">
<stop stop-color="white" stop-opacity="0"/>
<stop offset="1" stop-color="white" stop-opacity="0.2"/>
</linearGradient>
<radialGradient id="paint10_radial_1540_52" cx="0" cy="0" r="1" gradientUnits="userSpaceOnUse" gradientTransform="translate(266.074 258.151) rotate(104.168) scale(103.14 58.0724)">
<stop stop-color="#2E335A"/>
<stop offset="1" stop-color="#1C1B33" stop-opacity="0.2"/>
</radialGradient>
<linearGradient id="paint11_linear_1540_52" x1="143" y1="234" x2="318" y2="385" gradientUnits="userSpaceOnUse">
<stop stop-color="#E1F6FF" stop-opacity="0.3"/>
<stop offset="1" stop-color="white" stop-opacity="0.07"/>
</linearGradient>
<radialGradient id="paint12_radial_1540_52" cx="0" cy="0" r="1" gradientUnits="userSpaceOnUse" gradientTransform="translate(409.074 343.151) rotate(104.168) scale(103.14 58.0724)">
<stop stop-color="#2E335A"/>
<stop offset="1" stop-color="#1C1B33" stop-opacity="0.2"/>
</radialGradient>
<linearGradient id="paint13_linear_1540_52" x1="286" y1="319" x2="461" y2="470" gradientUnits="userSpaceOnUse">
<stop stop-color="#E1F6FF" stop-opacity="0.3"/>
<stop offset="1" stop-color="white" stop-opacity="0.07"/>
</linearGradient>
<radialGradient id="paint14_radial_1540_52" cx="0" cy="0" r="1" gradientUnits="userSpaceOnUse" gradientTransform="translate(556.074 263.151) rotate(104.168) scale(103.14 58.0724)">
<stop stop-color="#2E335A"/>
<stop offset="1" stop-color="#1C1B33" stop-opacity="0.2"/>
</radialGradient>
<linearGradient id="paint15_linear_1540_52" x1="433" y1="239" x2="608" y2="390" gradientUnits="userSpaceOnUse">
<stop stop-color="#E1F6FF" stop-opacity="0.3"/>
<stop offset="1" stop-color="white" stop-opacity="0.07"/>
</linearGradient>
<radialGradient id="paint16_radial_1540_52" cx="0" cy="0" r="1" gradientUnits="userSpaceOnUse" gradientTransform="translate(412.074 177.151) rotate(104.168) scale(103.14 58.0724)">
<stop stop-color="#2E335A"/>
<stop offset="1" stop-color="#1C1B33" stop-opacity="0.2"/>
</radialGradient>
<linearGradient id="paint17_linear_1540_52" x1="289" y1="153" x2="464" y2="304" gradientUnits="userSpaceOnUse">
<stop stop-color="#E1F6FF" stop-opacity="0.3"/>
<stop offset="1" stop-color="white" stop-opacity="0.07"/>
</linearGradient>
<radialGradient id="paint18_radial_1540_52" cx="0" cy="0" r="1" gradientUnits="userSpaceOnUse" gradientTransform="translate(121.074 340.151) rotate(104.168) scale(103.14 58.0724)">
<stop stop-color="#2E335A"/>
<stop offset="1" stop-color="#1C1B33" stop-opacity="0.2"/>
</radialGradient>
<radialGradient id="paint19_angular_1540_52" cx="0" cy="0" r="1" gradientUnits="userSpaceOnUse" gradientTransform="translate(85.5 391.5) rotate(90) scale(75.5 87.5)">
<stop offset="0.0210551" stop-color="#363C68"/>
<stop offset="0.322441" stop-color="#262956"/>
<stop offset="0.495395" stop-color="#2C325C"/>
<stop offset="0.698546" stop-color="#2F345F"/>
<stop offset="0.953459" stop-color="#1F2347"/>
</radialGradient>
<radialGradient id="paint20_radial_1540_52" cx="0" cy="0" r="1" gradientUnits="userSpaceOnUse" gradientTransform="translate(123.074 177.151) rotate(104.168) scale(103.14 58.0724)">
<stop stop-color="#2E335A"/>
<stop offset="1" stop-color="#1C1B33" stop-opacity="0.2"/>
</radialGradient>
<linearGradient id="paint21_linear_1540_52" x1="0" y1="153" x2="175" y2="304" gradientUnits="userSpaceOnUse">
<stop stop-color="white" stop-opacity="0"/>
<stop offset="1" stop-color="white" stop-opacity="0.2"/>
</linearGradient>
<linearGradient id="paint22_linear_1540_52" x1="723.051" y1="979.292" x2="4197.07" y2="4404.89" gradientUnits="userSpaceOnUse">
<stop stop-color="#387EB8"/>
<stop offset="1" stop-color="#366994"/>
</linearGradient>
<linearGradient id="paint23_linear_1540_52" x1="1060.52" y1="1441.89" x2="4790.53" y2="4953.88" gradientUnits="userSpaceOnUse">
<stop stop-color="#FFE052"/>
<stop offset="1" stop-color="#FFC331"/>
</linearGradient>
<linearGradient id="paint24_linear_1540_52" x1="384.389" y1="397.305" x2="398.194" y2="414.417" gradientUnits="userSpaceOnUse">
<stop stop-color="white"/>
<stop offset="1" stop-color="white" stop-opacity="0"/>
</linearGradient>
<linearGradient id="paint25_linear_1540_52" x1="389.056" y1="373" x2="388.978" y2="393.562" gradientUnits="userSpaceOnUse">
<stop stop-color="white"/>
<stop offset="1" stop-color="white" stop-opacity="0"/>
</linearGradient>
<clipPath id="clip0_1540_52">
<rect width="615" height="600" fill="white"/>
</clipPath>
<clipPath id="clip1_1540_52">
<rect width="70" height="70" fill="white" transform="translate(52 352)"/>
</clipPath>
<clipPath id="clip2_1540_52">
<rect width="70" height="62.8409" fill="white" transform="translate(196 280)"/>
</clipPath>
<clipPath id="clip3_1540_52">
<rect width="70" height="78.2353" fill="white" transform="translate(196 108)"/>
</clipPath>
</defs>
</svg>
